<svg width="1971" height="1970" xmlns="http://www.w3.org/2000/svg" xmlns:xlink="http://www.w3.org/1999/xlink" xml:space="preserve" overflow="hidden"><defs><clipPath id="clip0"><rect x="1218" y="177" width="1971" height="1970"/></clipPath></defs><g clip-path="url(#clip0)" transform="translate(-1218 -177)"><path d="M1225.59 184.412 1875.2 184.412 1875.2 834.018 1225.59 834.018Z" fill="#FFFFFF" fill-rule="evenodd"/><path d="M1875.2 184.412 2524.8 184.412 2524.8 834.018 1875.2 834.018Z" fill="#FFFFFF" fill-rule="evenodd"/><path d="M2524.8 184.412 3174.41 184.412 3174.41 834.018 2524.8 834.018Z" fill="#FFFFFF" fill-rule="evenodd"/><path d="M1225.59 834.018 1875.2 834.018 1875.2 1483.62 1225.59 1483.62Z" fill="#FFFFFF" fill-rule="evenodd"/><path d="M1875.2 834.018 2524.8 834.018 2524.8 1483.62 1875.2 1483.62Z" fill="#FFFFFF" fill-rule="evenodd"/><path d="M2524.8 834.018 3174.41 834.018 3174.41 1483.62 2524.8 1483.62Z" fill="#FFFFFF" fill-rule="evenodd"/><path d="M1225.59 1483.62 1875.2 1483.62 1875.2 2133.23 1225.59 2133.23Z" fill="#FFFFFF" fill-rule="evenodd"/><path d="M1875.2 1483.62 2524.8 1483.62 2524.8 2133.23 1875.2 2133.23Z" fill="#4472C4" fill-rule="evenodd"/><path d="M2524.8 1483.62 3174.41 1483.62 3174.41 2133.23 2524.8 2133.23Z" fill="#FFFFFF" fill-rule="evenodd"/><path d="M1875.2 177.537 1875.2 2140.11" stroke="#000000" stroke-width="13.75" stroke-linejoin="round" stroke-miterlimit="10" fill="none" fill-rule="evenodd"/><path d="M2524.8 177.537 2524.8 2140.11" stroke="#000000" stroke-width="13.75" stroke-linejoin="round" stroke-miterlimit="10" fill="none" fill-rule="evenodd"/><path d="M1218.72 834.018 3181.28 834.018" stroke="#000000" stroke-width="13.75" stroke-linejoin="round" stroke-miterlimit="10" fill="none" fill-rule="evenodd"/><path d="M1218.72 1483.62 3181.28 1483.62" stroke="#000000" stroke-width="13.75" stroke-linejoin="round" stroke-miterlimit="10" fill="none" fill-rule="evenodd"/><path d="M1225.59 177.537 1225.59 2140.11" stroke="#000000" stroke-width="13.75" stroke-linejoin="round" stroke-miterlimit="10" fill="none" fill-rule="evenodd"/><path d="M3174.41 177.537 3174.41 2140.11" stroke="#000000" stroke-width="13.75" stroke-linejoin="round" stroke-miterlimit="10" fill="none" fill-rule="evenodd"/><path d="M1218.72 184.412 3181.28 184.412" stroke="#000000" stroke-width="13.75" stroke-linejoin="round" stroke-miterlimit="10" fill="none" fill-rule="evenodd"/><path d="M1218.72 2133.23 3181.28 2133.23" stroke="#000000" stroke-width="13.75" stroke-linejoin="round" stroke-miterlimit="10" fill="none" fill-rule="evenodd"/></g></svg>